<svg width="20" height="21" viewBox="0 0 20 21" fill="none" xmlns="http://www.w3.org/2000/svg">
<rect y="0.581787" width="20" height="20" rx="5" fill="#63C174"/>
<g clip-path="url(#clip0_395_247)">
<path d="M7.29142 15.4812C7.29142 15.5451 7.21554 15.5963 7.11987 15.5963C7.011 15.6058 6.93512 15.5547 6.93512 15.4812C6.93512 15.4173 7.011 15.3661 7.10667 15.3661C7.20565 15.3566 7.29142 15.4077 7.29142 15.4812ZM6.2654 15.3374C6.2423 15.4013 6.30828 15.4748 6.40726 15.494C6.49304 15.5259 6.59201 15.494 6.6118 15.4301C6.6316 15.3661 6.56891 15.2926 6.46994 15.2639C6.38416 15.2415 6.28849 15.2735 6.2654 15.3374ZM7.72361 15.283C7.62793 15.3054 7.56195 15.3661 7.57185 15.4397C7.58174 15.5036 7.66752 15.5451 7.7665 15.5227C7.86217 15.5004 7.92815 15.4397 7.91825 15.3757C7.90836 15.315 7.81928 15.2735 7.72361 15.283ZM9.89443 3.03589C5.31855 3.03589 1.81818 6.4013 1.81818 10.8342C1.81818 14.3786 4.12097 17.4116 7.41019 18.4791C7.83248 18.5526 7.98094 18.3001 7.98094 18.0924C7.98094 17.8942 7.97104 16.8012 7.97104 16.13C7.97104 16.13 5.66166 16.6094 5.17669 15.1776C5.17669 15.1776 4.80059 14.2475 4.25953 14.0078C4.25953 14.0078 3.50403 13.5061 4.31232 13.5156C4.31232 13.5156 5.1338 13.5796 5.58578 14.3402C6.30828 15.5739 7.51906 15.2191 7.99084 15.0082C8.06672 14.4968 8.28116 14.1421 8.51869 13.9311C6.67449 13.733 4.81378 13.4741 4.81378 10.3995C4.81378 9.52062 5.06452 9.07957 5.59238 8.51707C5.5066 8.30933 5.22617 7.45279 5.67815 6.34697C6.36767 6.13923 7.95455 7.20989 7.95455 7.20989C8.61437 7.03092 9.32368 6.93823 10.0264 6.93823C10.7291 6.93823 11.4384 7.03092 12.0982 7.20989C12.0982 7.20989 13.6851 6.13603 14.3746 6.34697C14.8266 7.45599 14.5462 8.30933 14.4604 8.51707C14.9883 9.08276 15.3116 9.52381 15.3116 10.3995C15.3116 13.4837 13.3684 13.7298 11.5242 13.9311C11.8277 14.1836 12.085 14.663 12.085 15.4141C12.085 16.4911 12.0751 17.8239 12.0751 18.086C12.0751 18.2937 12.2269 18.5462 12.6459 18.4727C15.945 17.4116 18.1818 14.3786 18.1818 10.8342C18.1818 6.4013 14.4703 3.03589 9.89443 3.03589ZM5.02493 14.059C4.98204 14.0909 4.99194 14.1644 5.04802 14.2252C5.10081 14.2763 5.17669 14.2987 5.21957 14.2571C5.26246 14.2252 5.25257 14.1517 5.19648 14.0909C5.1437 14.0398 5.06782 14.0174 5.02493 14.059ZM4.66862 13.8001C4.64553 13.8416 4.67852 13.8928 4.7445 13.9247C4.79729 13.9567 4.86327 13.9471 4.88636 13.9024C4.90946 13.8608 4.87647 13.8097 4.81048 13.7777C4.7445 13.7585 4.69172 13.7681 4.66862 13.8001ZM5.73754 14.9379C5.68475 14.9794 5.70455 15.0753 5.78043 15.136C5.85631 15.2095 5.95198 15.2191 5.99487 15.168C6.03776 15.1264 6.01796 15.0306 5.95198 14.9698C5.8794 14.8963 5.78043 14.8867 5.73754 14.9379ZM5.36144 14.4681C5.30865 14.5 5.30865 14.5831 5.36144 14.6566C5.41422 14.7301 5.5033 14.7621 5.54619 14.7301C5.59897 14.6886 5.59897 14.6055 5.54619 14.532C5.5 14.4585 5.41422 14.4265 5.36144 14.4681Z" fill="black"/>
</g>
<defs>
<clipPath id="clip0_395_247">
<rect width="16.3636" height="16.3636" fill="white" transform="translate(1.81818 2.78027)"/>
</clipPath>
</defs>
</svg>
