<svg width="21" height="21" viewBox="0 0 21 21" fill="none" xmlns="http://www.w3.org/2000/svg">
<g clip-path="url(#clip0_395_252)">
<path d="M10.5 0.581787C4.98 0.581787 0.5 5.06179 0.5 10.5818C0.5 16.1018 4.98 20.5818 10.5 20.5818C16.02 20.5818 20.5 16.1018 20.5 10.5818C20.5 5.06179 16.02 0.581787 10.5 0.581787ZM17.89 7.58179H14.26C13.95 5.59179 13.34 3.92179 12.54 2.85179C14.99 3.50179 16.95 5.27179 17.89 7.58179ZM13.5 10.5818C13.5 11.2718 13.46 11.9418 13.39 12.5818H7.61C7.54 11.9418 7.5 11.2718 7.5 10.5818C7.5 9.89179 7.54 9.22179 7.61 8.58179H13.38C13.46 9.22179 13.5 9.89179 13.5 10.5818ZM10.5 2.58179C11.57 2.58179 12.75 4.63179 13.25 7.58179H7.75C8.25 4.63179 9.43 2.58179 10.5 2.58179ZM8.46 2.85179C7.66 3.92179 7.05 5.59179 6.74 7.58179H3.11C4.05 5.27179 6.01 3.50179 8.46 2.85179ZM2.5 10.5818C2.5 9.89179 2.61 9.22179 2.78 8.58179H6.61C6.54 9.22179 6.5 9.89179 6.5 10.5818C6.5 11.2718 6.54 11.9418 6.61 12.5818H2.78C2.61 11.9418 2.5 11.2718 2.5 10.5818ZM3.11 13.5818H6.74C7.05 15.5718 7.66 17.2418 8.46 18.3118C6.01 17.6618 4.05 15.8918 3.11 13.5818ZM10.5 18.5818C9.43 18.5818 8.25 16.5318 7.75 13.5818H13.25C12.75 16.5318 11.57 18.5818 10.5 18.5818ZM12.54 18.3118C13.33 17.2418 13.94 15.5718 14.26 13.5818H17.89C16.95 15.8918 14.99 17.6618 12.54 18.3118ZM14.39 12.5818C14.46 11.9418 14.5 11.2718 14.5 10.5818C14.5 9.89179 14.46 9.22179 14.39 8.58179H18.22C18.39 9.22179 18.5 9.89179 18.5 10.5818C18.5 11.2718 18.39 11.9418 18.22 12.5818H14.39Z" fill="#63C174"/>
</g>
<defs>
<clipPath id="clip0_395_252">
<rect width="20" height="20" fill="white" transform="translate(0.5 0.581787)"/>
</clipPath>
</defs>
</svg>
