<svg width="69" height="69" viewBox="0 0 69 69" fill="none" xmlns="http://www.w3.org/2000/svg">
<path d="M30.0914 9.45584C30.453 9.95117 31.2583 10.9509 31.2963 10.9585C31.3115 10.9616 31.8631 10.7291 32.5164 10.4404C33.7319 9.89951 34.5023 9.64881 35.0766 9.62146C35.4595 9.60323 36.0202 9.63514 36.0323 9.67768C36.0354 9.69287 35.8515 9.72174 35.6221 9.74149C34.914 9.79315 34.5661 9.94965 32.4784 11.1074C32.0743 11.3293 31.7461 11.5298 31.7461 11.5481C31.7537 11.5678 31.9816 11.741 32.2566 11.931C32.5331 12.1285 32.9525 12.4384 33.1941 12.6253C33.4356 12.8122 33.6803 12.9961 33.7411 13.0447C33.8353 13.1146 33.89 13.0963 34.247 12.8396C34.9232 12.3549 35.4793 12.054 36.0232 11.893C37.6383 11.3992 38.7141 11.5268 40.9339 12.4704C41.9899 12.9186 42.7983 13.496 43.4364 14.2617C43.9363 14.8649 44.1201 15.2007 44.1915 15.649C44.269 16.164 44.2007 16.6426 43.9317 17.4312C43.8071 17.7928 43.6643 18.3186 43.6111 18.5997C43.5534 18.8762 43.4622 19.332 43.4091 19.6131C43.0277 21.5534 41.3579 25.9673 40.0527 28.5032C39.729 29.1276 38.3661 31.3384 38.2051 31.4994C38.1625 31.542 37.962 31.5602 37.7401 31.545C37.3618 31.5131 37.3405 31.5161 37.0063 31.7593C36.593 32.0631 35.888 32.914 35.537 33.5294C35.2848 33.9639 34.285 35.9483 34.086 36.3935C34.0176 36.5439 33.7213 37.378 33.4174 38.2471C30.9742 45.3215 30.1765 47.3864 28.6586 50.5361C27.8366 52.2424 27.4279 52.8243 25.8644 54.5063C25.2415 55.184 24.7264 55.7629 24.7264 55.7994C24.7279 55.8434 24.0487 56.5499 23.2222 57.3765C21.7848 58.8139 21.7164 58.8913 21.6876 59.0934C21.6116 59.5888 21.9383 60.4016 22.5582 61.2768C22.8317 61.6597 23.0611 61.9135 24.029 62.9056C25.0759 63.9829 25.2278 64.1227 25.7642 64.5436C26.0878 64.7943 26.5497 65.1528 26.7913 65.3397C27.3838 65.8047 28.1177 66.265 28.806 66.6069C29.4138 66.9108 29.9456 67.0536 30.9074 67.1767L31.3723 67.2405L31.5364 66.8941C31.7825 66.3744 31.8448 66.1025 32.1654 64.0406C32.5103 61.8268 32.5802 61.5017 33.0315 59.8926C33.8368 57.0453 33.9826 56.6988 35.5142 53.9274C35.9229 53.1814 36.3879 52.3336 36.5398 52.0358C36.8255 51.4766 37.1157 51.0132 38.0622 49.6017C38.6001 48.7903 38.8387 48.3786 39.4571 47.2041C39.6288 46.8774 40.0147 46.2362 40.3186 45.7864C41.0935 44.6287 41.5417 43.7702 42.0963 42.3678C42.9107 40.3318 42.9791 40.1266 43.1933 39.2104C43.3073 38.7227 43.4805 38.0207 43.5777 37.65C43.6719 37.2823 43.7752 36.7596 43.8071 36.4998L43.8603 36.0182L43.6005 35.7583C43.3498 35.5076 43.3392 35.4909 43.3984 35.3861C43.5367 35.1293 45.1138 32.5858 45.79 31.5359C47.2562 29.2583 48.7969 27.0612 49.6326 26.0797C50.5731 24.966 51.8281 23.9297 52.3113 23.8659C52.6775 23.8188 53.0558 23.8325 53.2047 23.9024C53.3657 23.9784 55.0994 25.1164 55.6692 25.5221C56.2298 25.9186 56.9941 26.5492 57.6262 27.1387C58.1276 27.6037 58.1808 27.669 58.4618 28.1081C59.0195 28.9818 59.8886 29.7354 60.7136 30.0681C61.1102 30.2277 61.0859 30.252 61.9246 28.921C62.8301 27.4867 63.2814 26.6434 63.4759 26.066C63.5853 25.7378 63.7084 25.3868 63.7509 25.2896C63.8071 25.1513 63.7995 25.0769 63.7281 24.9751C63.5868 24.7791 62.3014 23.5666 62.0112 23.3554C61.7818 23.1928 61.7468 23.1822 61.5432 23.2399C61.4186 23.2734 61.2925 23.2992 61.2667 23.2977C61.177 23.287 58.5333 21.3179 57.8662 20.7724C57.3861 20.3774 57.2311 20.2224 56.8847 19.8213C56.3848 19.2363 56.283 19.0372 55.812 17.7761C55.4185 16.7201 55.2316 16.4056 54.6117 15.731C54.1756 15.2645 53.931 15.0442 52.3645 13.7391C50.9241 12.5357 51.1459 12.6967 47.8868 10.5134C44.8434 8.47886 44.1688 8.13244 41.9064 7.41376C39.9797 6.80599 37.9726 6.34257 37.0883 6.29699C36.3408 6.26052 35.4337 6.44741 33.3642 7.07645C31.9983 7.48517 31.585 7.69789 30.4758 8.55179C30.1416 8.81313 29.8544 9.03649 29.8392 9.05168C29.8271 9.06383 29.941 9.25072 30.0914 9.45584Z" fill="#FF8B3E"/>
</svg>
