<svg width="34" height="20" viewBox="0 0 34 20" fill="none" xmlns="http://www.w3.org/2000/svg">
<path d="M7.80505 5.21643H14.0445V5.71326H8.37697V9.45355H13.7063V9.95038H8.37697V14.0569H14.1092V14.5544H7.80505V5.21643ZM14.6034 5.21643H15.266L18.204 9.32297L21.2072 5.21643L25.2902 0L18.5807 9.75452L22.0409 14.5544H21.3488L18.204 10.1848L15.0454 14.5531H14.3697L17.8527 9.75321L14.6034 5.21643ZM22.285 5.71326V5.21643H29.3948V5.71326H26.1193V14.5538H25.5474V5.71326H22.2831H22.285ZM0 5.21643H0.718156L10.5765 20L6.50258 14.5544L0.598028 5.92218L0.571914 14.5544H0V5.21643ZM29.3373 13.9061C29.296 13.9069 29.2553 13.8953 29.2205 13.8729C29.1857 13.8505 29.1584 13.8182 29.1421 13.7802C29.1257 13.7421 29.1211 13.7001 29.1287 13.6594C29.1364 13.6188 29.156 13.5813 29.185 13.5518C29.214 13.5223 29.2512 13.5021 29.2917 13.4938C29.3323 13.4856 29.3744 13.4895 29.4126 13.5053C29.4509 13.521 29.4836 13.5478 29.5066 13.5822C29.5296 13.6166 29.5418 13.6571 29.5417 13.6985C29.5424 13.7257 29.5376 13.7527 29.5276 13.778C29.5177 13.8033 29.5027 13.8263 29.4836 13.8457C29.4645 13.8651 29.4418 13.8804 29.4166 13.8908C29.3915 13.9012 29.3645 13.9064 29.3373 13.9061ZM29.8995 13.359H30.2057C30.2057 13.3977 30.2138 13.4359 30.2293 13.4713C30.2449 13.5066 30.2676 13.5384 30.2961 13.5645C30.3246 13.5907 30.3582 13.6106 30.3947 13.6231C30.4313 13.6356 30.4701 13.6404 30.5086 13.6371C30.7077 13.6371 30.8207 13.517 30.8207 13.2924V11.8692H31.1321V13.2944C31.1321 13.6992 30.8984 13.9322 30.5119 13.9322C30.1489 13.9322 29.8995 13.7063 29.8995 13.3597V13.359ZM31.5395 13.3414H31.8483C31.875 13.532 32.0611 13.6535 32.3294 13.6535C32.5801 13.6535 32.7636 13.5229 32.7636 13.3453C32.7636 13.1919 32.6467 13.0998 32.381 13.0371L32.1199 12.9719C31.7569 12.8863 31.591 12.7107 31.591 12.4143C31.591 12.0559 31.8829 11.8169 32.321 11.8169C32.729 11.8169 33.0267 12.0559 33.045 12.3947H32.7414C32.712 12.2093 32.5508 12.0931 32.317 12.0931C32.0709 12.0931 31.907 12.2119 31.907 12.3934C31.907 12.5371 32.0128 12.62 32.2739 12.6813L32.4953 12.7355C32.9072 12.8315 33.077 12.9967 33.077 13.3022C33.077 13.6874 32.7786 13.929 32.3033 13.929C31.8581 13.929 31.5591 13.6985 31.5369 13.3381L31.5395 13.3414Z" fill="#FEEADD"/>
</svg>
