<svg width="17" height="17" viewBox="0 0 17 17" fill="none" xmlns="http://www.w3.org/2000/svg">
<path d="M7.94843 1.17422C7.98307 1.08565 8.04207 1.00988 8.11793 0.956556C8.19378 0.90323 8.28305 0.874756 8.37439 0.874756C8.46573 0.874756 8.555 0.90323 8.63086 0.956556C8.70671 1.00988 8.76571 1.08565 8.80036 1.17422L10.5411 5.56197C10.5737 5.64408 10.6272 5.71517 10.6959 5.76742C10.7645 5.81968 10.8456 5.85107 10.9302 5.85815L15.4503 6.23761C15.8591 6.27195 16.0246 6.80679 15.7133 7.0858L12.2695 10.1781C12.2052 10.2358 12.1572 10.3109 12.1309 10.3952C12.1046 10.4796 12.101 10.5699 12.1204 10.6563L13.1731 15.2792C13.1942 15.372 13.1887 15.4692 13.1571 15.5587C13.1256 15.6481 13.0694 15.7258 12.9958 15.7818C12.9222 15.8379 12.8344 15.8698 12.7434 15.8735C12.6525 15.8773 12.5626 15.8527 12.485 15.8029L8.61441 13.3262C8.5421 13.28 8.45906 13.2556 8.37439 13.2556C8.28972 13.2556 8.20668 13.28 8.13438 13.3262L4.26383 15.8038C4.18622 15.8536 4.09627 15.8781 4.00535 15.8744C3.91442 15.8706 3.8266 15.8387 3.75297 15.7827C3.67934 15.7266 3.62321 15.649 3.59166 15.5595C3.56012 15.4701 3.55457 15.3729 3.57573 15.2801L4.62836 10.6563C4.64788 10.5699 4.64429 10.4796 4.61799 10.3952C4.59168 10.3108 4.54368 10.2357 4.47927 10.1781L1.0355 7.0858C0.966541 7.02365 0.916651 6.94152 0.892108 6.84974C0.867566 6.75796 0.869466 6.66062 0.89757 6.56997C0.925673 6.47932 0.978726 6.39939 1.05006 6.34026C1.12139 6.28112 1.20781 6.24541 1.29846 6.23761L5.8186 5.85815C5.90318 5.85107 5.98425 5.81968 6.0529 5.76742C6.12155 5.71517 6.17512 5.64408 6.2077 5.56197L7.94843 1.17508V1.17422Z" stroke="#63C174" stroke-width="1.5" stroke-linecap="round" stroke-linejoin="round"/>
</svg>
